<svg id="Group_64" data-name="Group 64" xmlns="http://www.w3.org/2000/svg" width="194.804" height="37.12" viewBox="0 0 194.804 37.12">
  <g id="Group_59" data-name="Group 59" transform="translate(102.676 3.349)">
    <path id="Path_137" data-name="Path 137" d="M2564.131,663.652a1.821,1.821,0,0,1-.623.114,1.722,1.722,0,0,1-1.473-.963,6.378,6.378,0,0,1-.594-1.218,1.393,1.393,0,0,1-.042-.892,1.3,1.3,0,0,1,.566-.666,5.429,5.429,0,0,1,1.2-.538,13.673,13.673,0,0,0,2.408-1.076,8.156,8.156,0,0,0,3.03-2.889,6.941,6.941,0,0,0,.935-3.484,7.552,7.552,0,0,0-1.615-4.858,7.388,7.388,0,0,0-4.588-2.591,43.571,43.571,0,0,1-1.147,6.712,30.482,30.482,0,0,1-1.94,5.523,13.6,13.6,0,0,1-2.478,3.738,3.941,3.941,0,0,1-2.791,1.359,4.646,4.646,0,0,1-2.378-.68,7.381,7.381,0,0,1-2.111-1.911,9.644,9.644,0,0,1-1.5-2.932,12.056,12.056,0,0,1-.552-3.738,11.772,11.772,0,0,1,.878-4.518,11.193,11.193,0,0,1,2.577-3.8,12.321,12.321,0,0,1,4.149-2.62,15.118,15.118,0,0,1,5.565-.963,13.863,13.863,0,0,1,5.325.949,11.235,11.235,0,0,1,3.851,2.563,11,11,0,0,1,2.352,3.625,11.184,11.184,0,0,1,.792,4.135v.085a10.577,10.577,0,0,1-2.861,7.505A15.466,15.466,0,0,1,2564.131,663.652Zm-9.432-6.542q.4,0,1.02-.921a13.892,13.892,0,0,0,1.288-2.605,34.317,34.317,0,0,0,1.26-3.98,39.32,39.32,0,0,0,.935-5.041,7.931,7.931,0,0,0-3.7,1.615,7.749,7.749,0,0,0-2.223,2.889,8.561,8.561,0,0,0-.736,3.484,7.2,7.2,0,0,0,.651,3.3Q2553.85,657.11,2554.7,657.11Z" transform="translate(-2548.44 -635.639)" fill="#505050"/>
    <path id="Path_138" data-name="Path 138" d="M2592.036,646.479a1.884,1.884,0,0,1-.793-1.262,1.709,1.709,0,0,1,.339-1.424,13.415,13.415,0,0,0,1.732-3.027,11.85,11.85,0,0,0,.761-3.349,3.707,3.707,0,0,1,1-2.46,4.383,4.383,0,0,1,2.622-.939q1.293-.1,2.815-.34t2.622-.469a1.961,1.961,0,0,1,1.424.21,1.533,1.533,0,0,1,.777,1.117,1.7,1.7,0,0,1-.21,1.327,1.683,1.683,0,0,1-1.116.744q-.907.162-2.136.34t-2.233.242q-1.069.1-1.328.745h6.959a1.527,1.527,0,0,1,1.2.469,1.779,1.779,0,0,1,0,2.3,1.525,1.525,0,0,1-1.2.469h-1.683v1.165a2,2,0,0,1-.631,1.571,2.371,2.371,0,0,1-3.075,0,2,2,0,0,1-.631-1.571v-1.165h-1.619a14.566,14.566,0,0,1-1.084,2.638,11.8,11.8,0,0,1-1.408,2.12,2.6,2.6,0,0,1-1.456.89A2.144,2.144,0,0,1,2592.036,646.479Zm4.435,16.9a2.663,2.663,0,0,1-1.845-.065,1.853,1.853,0,0,1-1.036-1.165,2.28,2.28,0,0,1,.049-1.586,1.679,1.679,0,0,1,1.279-.971q1.035-.26,2.508-.712t2.7-.939a4.077,4.077,0,0,1-2.865-1.263,5.36,5.36,0,0,1-.825-3.333v-4.014a6.51,6.51,0,0,1,.5-2.832,2.843,2.843,0,0,1,1.667-1.441,9.515,9.515,0,0,1,3.14-.421h4.273a1.574,1.574,0,0,1-.664-1.229,1.6,1.6,0,0,1,.469-1.3,7.252,7.252,0,0,0,1.343-2.168,8.92,8.92,0,0,0,.534-2.655,3.316,3.316,0,0,1,.939-2.33,3.994,3.994,0,0,1,2.46-.906q.9-.065,2.007-.211t2.217-.34q1.118-.193,1.991-.356a2.267,2.267,0,0,1,1.472.162,1.388,1.388,0,0,1,.793,1.069,1.981,1.981,0,0,1-.177,1.408,1.616,1.616,0,0,1-1.182.76q-1.1.227-2.541.4t-2.444.242a2.418,2.418,0,0,0-.873.227,1.077,1.077,0,0,0-.454.518h8.318a1.527,1.527,0,0,1,1.2.469,1.78,1.78,0,0,1,0,2.3,1.525,1.525,0,0,1-1.2.469h-2.848V642.6a1.95,1.95,0,0,1-.631,1.554,2.425,2.425,0,0,1-3.075,0,1.951,1.951,0,0,1-.631-1.554v-1.424H2611.2a9.9,9.9,0,0,1-.858,1.828,8.7,8.7,0,0,1-1.116,1.473.481.481,0,0,0-.065.081.241.241,0,0,1-.1.081h3.075a9.494,9.494,0,0,1,3.156.421,2.846,2.846,0,0,1,1.65,1.441,6.521,6.521,0,0,1,.5,2.832v4.014a5.36,5.36,0,0,1-.825,3.333,4.077,4.077,0,0,1-2.865,1.263q1.23.485,2.7.939t2.477.712a1.7,1.7,0,0,1,1.311.971,2.284,2.284,0,0,1,.048,1.586,1.852,1.852,0,0,1-1.036,1.165,2.662,2.662,0,0,1-1.845.065q-1-.292-2.282-.761t-2.477-.987q-1.2-.518-2.039-.906a1.655,1.655,0,0,1-.988-1.117,2.111,2.111,0,0,1,.21-1.408l.1-.194h-5.988l.1.194a2.112,2.112,0,0,1,.21,1.408,1.657,1.657,0,0,1-.987,1.117q-.811.388-2.023.906t-2.493.987Q2597.473,663.084,2596.471,663.376Zm4.661-11.588h11.621v-.841h-11.621Zm1.684,3.269h8.253a3.376,3.376,0,0,0,1.279-.162q.339-.161.372-.777h-11.588a.871.871,0,0,0,.421.777A3.4,3.4,0,0,0,2602.815,655.057Zm-1.651-6.538h11.555c-.043-.41-.178-.663-.4-.761a3.6,3.6,0,0,0-1.247-.146h-8.253a3.594,3.594,0,0,0-1.246.146Q2601.228,647.9,2601.164,648.519Z" transform="translate(-2562.638 -633.09)" fill="#505050"/>
    <path id="Path_139" data-name="Path 139" d="M2646.122,663.838a2.274,2.274,0,0,1-1.6-.615,2.143,2.143,0,0,1-.664-1.651V639.238q0-2.72,1.263-3.837a6.262,6.262,0,0,1,4.175-1.116h2.427a6.264,6.264,0,0,1,4.176,1.116q1.261,1.117,1.262,3.837v1.78a5.822,5.822,0,0,1-.55,2.8,2.947,2.947,0,0,1-1.748,1.376,10.45,10.45,0,0,1-3.14.388h-3.366v15.99a2.173,2.173,0,0,1-.647,1.651A2.22,2.22,0,0,1,2646.122,663.838Zm2.233-21.59h2.848a2.973,2.973,0,0,0,1.263-.178q.322-.177.355-.89h-4.467Zm.032-3.625h4.4a.975.975,0,0,0-.356-.842,2.658,2.658,0,0,0-1.23-.194h-1.23a2.545,2.545,0,0,0-1.213.194A1.067,1.067,0,0,0,2648.387,638.623Zm9.419,19.971a10.8,10.8,0,0,1-3.852-.55A3.461,3.461,0,0,1,2652,656.3a7.3,7.3,0,0,1-.566-3.108A7.19,7.19,0,0,1,2652,650.1a3.475,3.475,0,0,1,1.958-1.732,13.756,13.756,0,0,1,7.7,0,3.478,3.478,0,0,1,1.957,1.732,7.186,7.186,0,0,1,.567,3.091,7.294,7.294,0,0,1-.567,3.108,3.464,3.464,0,0,1-1.957,1.748A10.807,10.807,0,0,1,2657.807,658.594Zm0-3.657a2.445,2.445,0,0,0,1.49-.324,1.818,1.818,0,0,0,.388-1.392,1.878,1.878,0,0,0-.388-1.424,3.591,3.591,0,0,0-2.978,0,1.872,1.872,0,0,0-.389,1.424,1.812,1.812,0,0,0,.389,1.392A2.437,2.437,0,0,0,2657.807,654.936Zm9.29,8.74a2.57,2.57,0,0,1-1.813-.6,2.45,2.45,0,0,1-.744-1.635,2.116,2.116,0,0,1,.421-1.651,2.306,2.306,0,0,1,1.49-.874q.9-.162,1.1-.453a1.909,1.909,0,0,0,.194-1V645.582h-3.464a10.447,10.447,0,0,1-3.139-.388,3.01,3.01,0,0,1-1.763-1.376,5.665,5.665,0,0,1-.567-2.8V639.27a4.94,4.94,0,0,1,1.279-3.851,6.264,6.264,0,0,1,4.191-1.132h2.493a6.266,6.266,0,0,1,4.191,1.132,4.942,4.942,0,0,1,1.278,3.851v19.486a4.988,4.988,0,0,1-1.23,3.739A5.5,5.5,0,0,1,2667.1,663.676Zm-3.917-25.053h4.532q-.033-.647-.372-.826a2.887,2.887,0,0,0-1.214-.178H2664.8a2.871,2.871,0,0,0-1.23.178A.987.987,0,0,0,2663.18,638.623Zm1.619,3.625h2.945V641.18h-4.564c.042.475.173.771.389.89A2.86,2.86,0,0,0,2664.8,642.248Z" transform="translate(-2580.115 -633.487)" fill="#505050"/>
  </g>
  <g id="Group_60" data-name="Group 60" transform="translate(0 2.048)">
    <path id="Path_140" data-name="Path 140" d="M2455.12,634.365a11.116,11.116,0,0,0-15.652,0,2.084,2.084,0,1,1-4.044,0,10.74,10.74,0,0,0-7.705-3.223h-.121a10.725,10.725,0,0,0-7.826,3.221c-3.026,3-4.671,7.731-4.631,13.268-.038,5.581,1.608,10.31,4.636,13.315a10.734,10.734,0,0,0,7.695,3.218h.25a10.738,10.738,0,0,0,7.7-3.221,2.088,2.088,0,1,1,4.052,0,10.733,10.733,0,0,0,7.7,3.22h.25a10.737,10.737,0,0,0,7.7-3.221c3.024-3,4.668-7.72,4.633-13.291C2459.785,642.084,2458.142,637.365,2455.12,634.365Zm-21,13.309c.027,3.911-1.022,7.213-2.88,9.057a4.843,4.843,0,0,1-3.6,1.5h-.087a4.753,4.753,0,0,1-3.6-1.494c-1.859-1.844-2.909-5.147-2.882-9.1-.027-3.912,1.021-7.212,2.879-9.056a4.866,4.866,0,0,1,3.524-1.5h.236a4.87,4.87,0,0,1,3.527,1.5c1.856,1.844,2.9,5.144,2.877,9.055v.041Zm19.7,0c.027,3.912-1.021,7.213-2.88,9.058a4.852,4.852,0,0,1-3.6,1.5h-.087a4.764,4.764,0,0,1-3.6-1.5c-1.858-1.844-2.908-5.147-2.88-9.1-.028-3.911,1.021-7.211,2.877-9.055a4.868,4.868,0,0,1,3.524-1.5h.237a4.867,4.867,0,0,1,3.525,1.5c1.857,1.843,2.906,5.143,2.878,9.055v.041Z" transform="translate(-2401.513 -631.142)" fill="#505050"/>
    <path id="Path_141" data-name="Path 141" d="M2400.99,663.863h-.04a2.968,2.968,0,0,1-2.928-3.008l.286-21.375a2.969,2.969,0,0,1-1.98-5.535l3.631-1.911a2.968,2.968,0,0,1,4.35,2.667l-.351,26.234A2.969,2.969,0,0,1,2400.99,663.863Z" transform="translate(-2394.742 -631.325)" fill="#505050"/>
  </g>
  <g id="Group_63" data-name="Group 63" transform="translate(61.208)">
    <g id="Group_61" data-name="Group 61">
      <circle id="Ellipse_3" data-name="Ellipse 3" cx="18.56" cy="18.56" r="18.56" fill="#89c3eb"/>
    </g>
    <g id="Group_62" data-name="Group 62" transform="translate(4.335 8.728)">
      <path id="Path_142" data-name="Path 142" d="M2506.348,649.4h-2.836v-2.836a2.607,2.607,0,1,0-5.215,0V649.4h-2.836a2.608,2.608,0,1,0,0,5.215h2.836v2.836a2.607,2.607,0,1,0,5.215,0V654.61h2.836a2.608,2.608,0,1,0,0-5.215Z" transform="translate(-2492.854 -642.074)" fill="#fff"/>
      <path id="Path_143" data-name="Path 143" d="M2525.391,641.516a2.612,2.612,0,0,0-2.562-.076L2519.3,643.3a2.607,2.607,0,0,0,2.134,4.747V658.2a2.608,2.608,0,0,0,5.215,0V643.748A2.608,2.608,0,0,0,2525.391,641.516Z" transform="translate(-2501.171 -641.141)" fill="#fff"/>
    </g>
  </g>
</svg>
